<?xml version="1.0" standalone="no"?>
<!DOCTYPE svg PUBLIC "-//W3C//DTD SVG 20010904//EN"
 "http://www.w3.org/TR/2001/REC-SVG-20010904/DTD/svg10.dtd">
<svg version="1.0" xmlns="http://www.w3.org/2000/svg"
 width="145.000000pt" height="146.000000pt" viewBox="0 0 145.000000 146.000000"
 preserveAspectRatio="xMidYMid meet">

<g transform="translate(0.000000,146.000000) scale(0.100000,-0.100000)"
fill="#000000" stroke="none">
<path d="M605 1454 c-11 -2 -45 -9 -75 -15 -124 -25 -246 -96 -346 -202 -80
-84 -134 -179 -165 -292 -19 -70 -21 -96 -16 -220 6 -158 23 -231 82 -343 89
-171 240 -293 435 -353 108 -34 302 -34 410 0 129 40 206 86 306 186 74 73 98
106 132 175 50 102 70 177 78 290 11 145 -26 306 -98 428 -18 31 -69 93 -113
137 -92 93 -197 154 -319 185 -72 18 -270 34 -311 24z m255 -65 c166 -44 322
-172 399 -329 94 -192 94 -387 0 -580 -60 -121 -170 -231 -289 -288 -113 -53
-175 -67 -300 -66 -88 1 -119 6 -190 30 -259 87 -426 310 -438 584 -8 190 47
336 174 470 174 182 397 244 644 179z"/>
<path d="M584 1363 c-14 -5 -6 -85 9 -95 25 -15 35 3 25 45 -10 46 -17 57 -34
50z"/>
<path d="M842 1320 l-21 -50 21 -11 c24 -13 30 -8 52 50 14 36 15 46 4 52 -25
16 -35 9 -56 -41z"/>
<path d="M646 1348 c-31 -17 -13 -68 25 -68 10 0 21 5 25 12 4 7 3 8 -5 4 -19
-12 -26 25 -7 39 15 12 15 13 -2 17 -11 3 -27 1 -36 -4z"/>
<path d="M738 1349 c-35 -19 -15 -69 26 -69 17 0 18 2 7 9 -12 7 -12 15 -4 33
l11 23 11 -25 c7 -16 10 -19 8 -6 -3 27 -38 47 -59 35z"/>
<path d="M482 1320 c-18 -8 -21 -15 -16 -37 9 -36 19 -47 38 -40 13 5 14 12 6
33 -6 15 -8 29 -5 32 3 3 10 -9 16 -26 6 -18 15 -32 20 -32 16 0 22 30 11 56
-12 25 -31 29 -70 14z"/>
<path d="M904 1275 c-19 -29 -14 -38 28 -60 26 -12 34 -13 44 -3 24 25 20 50
-11 69 -40 23 -42 23 -61 -6z m46 -25 c-6 -11 -13 -20 -16 -20 -2 0 0 9 6 20
6 11 13 20 16 20 2 0 0 -9 -6 -20z"/>
<path d="M390 1275 c-17 -21 2 -65 29 -65 20 0 48 27 37 37 -3 3 -6 1 -6 -5 0
-20 -16 -13 -28 12 -9 21 -8 25 6 29 13 4 12 5 -4 6 -12 0 -27 -6 -34 -14z"/>
<path d="M230 1197 c-19 -22 -29 -37 -22 -33 9 5 25 -3 48 -25 33 -32 34 -32
54 -14 l21 19 -36 36 c-27 28 -32 39 -23 48 7 7 8 12 3 11 -6 0 -26 -19 -45
-42z"/>
<path d="M334 1224 c5 -14 4 -15 -8 -5 -21 17 -28 -11 -10 -38 19 -26 45 -27
61 -2 9 15 8 23 -3 40 -18 25 -49 29 -40 5z m32 -41 c-10 -10 -19 5 -10 18 6
11 8 11 12 0 2 -7 1 -15 -2 -18z"/>
<path d="M622 1228 c-62 -14 -97 -70 -106 -174 -6 -60 -4 -78 7 -88 26 -21 27
-55 1 -93 -13 -20 -24 -49 -24 -65 0 -42 -24 -83 -65 -108 -43 -27 -45 -40 -3
-40 30 0 31 -1 14 -19 -21 -23 -14 -58 12 -64 36 -9 76 -7 83 5 6 9 11 9 21 0
8 -6 41 -11 75 -11 49 1 63 4 66 17 4 15 5 15 6 0 1 -21 17 -24 24 -5 3 9 7 9
18 1 17 -14 79 -16 79 -3 0 5 9 4 20 -3 44 -28 81 36 38 66 -21 15 -19 16 50
16 39 0 72 4 72 9 0 13 -56 59 -101 82 -43 21 -74 74 -88 147 -7 34 -5 50 11
80 14 27 18 52 16 94 -6 79 -42 131 -108 152 -54 18 -57 18 -118 4z m79 -124
c9 -8 19 -12 22 -9 4 3 5 2 3 -1 -3 -3 4 -15 14 -26 19 -21 18 -69 -1 -94 -5
-6 -6 -25 -3 -42 6 -27 2 -32 -40 -57 -27 -16 -56 -25 -72 -23 -29 3 -46 28
-20 28 9 0 16 8 16 20 0 12 -7 20 -16 20 -14 0 -14 1 0 16 17 16 12 39 -5 28
-6 -3 -9 15 -7 48 3 49 1 53 -20 56 -16 3 -22 8 -18 19 3 8 6 19 6 25 0 6 6 8
13 5 8 -3 20 -1 27 3 18 11 81 1 101 -16z m-131 -124 c-11 -21 -13 -21 -22 -6
-5 9 -6 26 -3 37 6 19 9 20 22 6 12 -12 13 -19 3 -37z m225 -20 c-3 -5 -11
-10 -16 -10 -6 0 -7 5 -4 10 3 6 11 10 16 10 6 0 7 -4 4 -10z m-41 -72 c-50
-53 -76 -93 -84 -133 -6 -27 -10 -30 -45 -29 -24 1 -43 8 -52 20 -12 17 -13
17 -13 -4 0 -13 -6 -22 -15 -22 -18 0 -21 50 -4 67 9 9 17 8 33 -2 13 -9 27
-11 35 -6 7 5 23 7 35 5 11 -2 6 3 -12 11 l-34 16 60 30 c33 16 73 42 89 58
45 45 51 35 7 -11z m-149 -188 c4 -6 1 -18 -6 -26 -11 -13 -10 -15 2 -14 41 6
172 -1 160 -9 -7 -5 -39 -7 -70 -6 -59 4 -81 -6 -81 -36 0 -11 -4 -19 -10 -19
-5 0 -10 11 -10 23 0 30 -10 40 -26 26 -8 -7 -14 -7 -19 1 -12 20 -25 10 -25
-20 0 -20 -5 -30 -15 -30 -8 0 -15 6 -16 13 0 6 -2 22 -3 35 -2 19 2 22 30 22
23 0 36 7 48 25 18 27 31 31 41 15z m38 -10 c-5 -19 -23 -29 -23 -12 0 7 20
32 26 32 1 0 0 -9 -3 -20z m201 -40 c-6 -6 -21 -6 -39 -1 -30 9 -30 9 10 10
25 1 36 -2 29 -9z m-377 -42 c-3 -8 -6 -5 -6 6 -1 11 2 17 5 13 3 -3 4 -12 1
-19z m306 7 c-3 -9 -8 -14 -10 -11 -3 3 -2 9 2 15 9 16 15 13 8 -4z m107 1 c0
-8 -4 -17 -9 -21 -12 -7 -24 12 -16 25 9 15 25 12 25 -4z"/>
<path d="M643 1063 c-28 -5 -28 -8 -2 -34 13 -13 26 -18 37 -13 9 4 23 6 30 5
6 -1 12 1 12 4 0 9 -39 45 -47 44 -5 -1 -18 -4 -30 -6z"/>
<path d="M640 920 c0 -5 5 -10 10 -10 6 0 10 5 10 10 0 6 -4 10 -10 10 -5 0
-10 -4 -10 -10z"/>
<path d="M1013 1223 c-21 -8 -14 -48 12 -73 l26 -24 31 31 c27 27 30 34 18 48
-7 9 -19 14 -26 11 -7 -3 -16 -1 -19 4 -7 11 -22 12 -42 3z m47 -27 c0 -2 -8
-10 -17 -17 -16 -13 -17 -12 -4 4 13 16 21 21 21 13z"/>
<path d="M1092 1134 c-28 -20 -28 -25 6 -63 l28 -32 28 22 c25 20 26 23 12 37
-12 13 -18 14 -28 4 -7 -7 -16 -12 -22 -12 -5 0 -1 6 9 14 11 8 16 19 12 30
-8 20 -17 20 -45 0z"/>
<path d="M218 1093 c22 -4 40 -28 29 -39 -3 -3 -17 2 -31 12 -30 19 -41 14
-31 -15 8 -25 41 -37 60 -21 30 25 10 71 -29 69 -18 -2 -18 -2 2 -6z"/>
<path d="M1154 1035 c-4 -8 -10 -12 -15 -9 -13 8 -11 -20 3 -34 18 -18 36 -15
43 8 4 11 11 18 16 15 13 -9 11 9 -3 23 -16 16 -37 15 -44 -3z"/>
<path d="M130 1009 c0 -14 11 -25 35 -35 40 -17 55 -12 55 17 0 12 -5 17 -10
14 -6 -4 -22 0 -35 9 -33 21 -45 20 -45 -5z"/>
<path d="M1188 974 c-27 -14 -36 -38 -19 -48 4 -3 27 2 50 11 39 15 40 17 25
35 -20 21 -21 21 -56 2z"/>
<path d="M122 933 c2 -10 13 -19 26 -21 12 -2 22 -7 22 -11 0 -4 -14 -5 -31
-3 -26 4 -30 1 -27 -14 4 -21 53 -37 66 -21 5 7 12 24 16 39 5 21 2 30 -13 38
-32 16 -63 13 -59 -7z"/>
<path d="M1207 912 c-22 -3 -28 -8 -25 -25 2 -17 9 -21 26 -19 13 2 30 -2 38
-9 13 -11 14 -9 8 17 -8 37 -13 40 -47 36z"/>
<path d="M90 832 c-7 -3 -7 -10 0 -23 12 -21 74 -27 85 -9 16 25 -41 46 -85
32z"/>
<path d="M1217 832 c-20 -2 -27 -8 -25 -20 3 -13 14 -17 46 -16 48 1 61 9 44
26 -13 13 -25 15 -65 10z"/>
<path d="M82 754 c4 -20 78 -30 89 -12 13 20 0 28 -47 28 -37 0 -45 -3 -42
-16z"/>
<path d="M1199 763 c0 -5 -2 -23 -5 -40 -3 -28 0 -34 21 -39 38 -9 55 2 55 35
0 20 -7 34 -19 41 -23 12 -51 13 -52 3z"/>
<path d="M137 709 c-9 -5 -21 -8 -25 -5 -4 2 -14 1 -22 -4 -11 -7 -11 -11 -1
-24 27 -32 99 -9 85 27 -7 20 -12 20 -37 6z"/>
<path d="M1180 660 c0 -13 9 -22 28 -26 15 -3 35 -8 45 -11 12 -3 17 1 17 16
0 15 -10 23 -37 30 -51 14 -53 14 -53 -9z"/>
<path d="M135 630 c-18 -20 -18 -21 -1 -38 16 -16 18 -16 30 0 7 10 16 14 20
10 5 -4 6 4 4 18 -4 32 -29 37 -53 10z"/>
<path d="M916 631 c4 -9 9 -26 11 -38 3 -13 9 -23 13 -23 4 0 10 10 13 23 2
12 7 29 11 38 5 12 0 16 -24 16 -24 0 -29 -4 -24 -16z"/>
<path d="M1172 608 c-27 -27 -2 -68 42 -68 24 0 30 39 10 61 -20 22 -35 24
-52 7z m18 -39 c0 -5 -4 -9 -10 -9 -5 0 -10 7 -10 16 0 8 5 12 10 9 6 -3 10
-10 10 -16z"/>
<path d="M148 553 c-41 -27 -47 -43 -24 -62 12 -10 23 -7 55 15 43 28 45 32
35 58 -8 22 -22 19 -66 -11z"/>
<path d="M675 545 c-5 -8 -22 -16 -37 -17 -24 -2 -25 -4 -14 -18 7 -8 13 -23
13 -32 0 -21 -36 -31 -44 -12 -3 8 -9 14 -14 14 -5 0 -4 -11 1 -25 6 -16 6
-25 0 -25 -17 0 -25 5 -22 13 1 5 -3 7 -10 5 -16 -6 -19 -58 -4 -77 9 -11 8
-13 -4 -9 -23 8 -50 -10 -50 -33 0 -18 5 -20 43 -18 23 2 69 0 102 -4 33 -5
82 -4 109 1 66 13 125 5 120 -17 -2 -9 9 -32 26 -51 l30 -35 19 23 c11 12 24
22 30 22 6 0 11 5 11 11 0 7 -9 9 -23 5 -28 -7 -56 29 -37 48 9 8 16 5 31 -13
13 -16 19 -18 19 -8 0 28 -29 42 -61 30 -26 -10 -29 -9 -29 8 0 17 -32 44 -42
34 -2 -2 -4 10 -5 28 0 18 -1 38 -2 45 -1 14 -31 17 -31 2 0 -5 -5 -10 -10
-10 -6 0 -8 11 -4 28 l6 27 -16 -22 c-22 -29 -44 -12 -42 32 1 24 -3 30 -19
30 -11 0 -22 8 -25 18 -4 15 -6 15 -15 2z m-7 -112 c-8 -10 -13 -10 -23 0 -7
7 -9 14 -4 15 5 2 9 11 9 20 0 13 3 12 14 -4 10 -13 11 -23 4 -31z m-73 -22
c3 -5 -2 -17 -11 -26 -14 -13 -19 -14 -25 -3 -12 18 -11 30 1 23 6 -3 10 -1
10 4 0 13 17 14 25 2z m119 -32 c-9 -15 -24 10 -17 29 5 12 7 12 15 -2 5 -9 6
-21 2 -27z m76 31 c0 -5 -5 -10 -11 -10 -5 0 -7 5 -4 10 3 6 8 10 11 10 2 0 4
-4 4 -10z m20 -19 c0 -14 -5 -18 -20 -14 -19 5 -20 6 -3 19 23 17 23 17 23 -5z"/>
<path d="M1150 492 c0 -8 -7 -11 -18 -8 -29 10 -54 -25 -49 -68 2 -20 6 -38 9
-41 11 -12 69 -11 85 0 25 19 22 80 -5 107 -13 14 -22 17 -22 10z m0 -57 c0
-8 -4 -15 -9 -15 -13 0 -22 16 -14 24 11 11 23 6 23 -9z"/>
<path d="M213 480 c-31 -13 -30 -54 3 -87 31 -31 24 -42 -12 -18 -15 9 -23 12
-20 6 4 -6 20 -18 35 -26 25 -12 31 -12 47 0 27 20 29 19 31 -20 2 -34 -10
-47 -20 -22 -3 7 -6 7 -6 1 -1 -18 36 -46 56 -42 14 3 18 13 18 41 0 27 4 36
13 32 8 -3 12 0 10 7 -3 7 -20 18 -39 24 -28 10 -37 9 -52 -4 -29 -25 -31 -6
-3 31 32 41 32 51 4 71 -25 18 -33 19 -65 6z m10 -25 c-3 -9 -8 -14 -10 -11
-3 3 -2 9 2 15 9 16 15 13 8 -4z"/>
<path d="M990 365 c-9 -11 -6 -21 15 -50 28 -36 40 -41 63 -26 11 7 8 17 -13
50 -29 44 -45 50 -65 26z"/>
<path d="M427 306 c-9 -7 -17 -23 -17 -35 0 -23 -16 -29 -23 -8 -2 7 -8 8 -13
3 -5 -5 -4 -11 4 -13 7 -3 25 -16 39 -29 14 -13 30 -24 34 -24 11 0 12 90 1
107 -5 8 -11 8 -25 -1z"/>
<path d="M520 275 c-10 -12 -10 -21 -1 -41 15 -34 14 -49 -2 -38 -7 5 -4 1 6
-8 38 -35 75 -11 57 36 -13 36 -13 49 3 41 6 -4 3 1 -7 9 -25 20 -40 20 -56 1z"/>
<path d="M765 243 c-4 -17 -2 -29 4 -31 6 -2 11 -8 11 -14 0 -6 -7 -8 -15 -4
-9 3 -15 0 -15 -10 0 -9 5 -12 12 -8 6 4 28 6 49 6 21 -1 40 2 43 6 5 8 -60
82 -73 82 -5 0 -12 -12 -16 -27z"/>
<path d="M644 245 c-4 -8 1 -26 10 -40 21 -31 20 -39 -1 -30 -12 4 -15 3 -8
-4 20 -19 61 -23 74 -7 11 13 11 20 -3 41 -19 28 -21 49 -4 39 7 -4 8 -3 4 4
-11 17 -66 15 -72 -3z"/>
</g>
</svg>
